<!DOCTYPE svg PUBLIC "-//W3C//DTD SVG 1.1//EN" "http://www.w3.org/Graphics/SVG/1.1/DTD/svg11.dtd">
<svg height="256px" width="256px" version="1.1" id="SVGRepoEditor" xmlns="http://www.w3.org/2000/svg" xmlns:xlink="http://www.w3.org/1999/xlink" viewBox="-112.05 -112.05 733.40 733.40" xml:space="preserve" fill="#000000" stroke="#000000" stroke-width="0">
<g id="SVGRepo_bgCarrier" stroke-width="0">
<rect x="-112.05" y="-112.05" width="733.40" height="733.40" rx="366.7" fill="#8e82e8" strokewidth="0"/>
</g> <g transform="translate(1 1)"> <path style="fill:#FFE100;" d="M423.107,267.515c61.44-61.44,69.12-152.747,17.067-204.8s-143.36-44.373-204.8,17.067 s-69.12,152.747-17.067,204.8S361.667,328.955,423.107,267.515"/> <path style="fill:#FFA800;" d="M454.68,71.248h-6.827c43.52,52.907,33.28,138.24-24.747,196.267s-143.36,68.267-196.267,24.747 v0.853h-6.827c64,58.027,162.133,57.173,223.573-5.12C503.32,229.115,506.733,135.248,454.68,71.248"/> <path style="fill:#FFFFFF;" d="M214.893,59.302c-59.733,59.733-63.147,153.6-11.093,216.747h6.827 c-43.52-52.907-33.28-138.24,24.747-196.267c61.44-61.44,152.747-69.12,204.8-17.067v-6.827 C377.027-3.845,276.333-2.992,214.893,59.302"/> <path style="fill:#FFE100;" d="M217.453,285.435c-10.24-10.24-17.067-23.04-21.333-37.547l-19.627,19.627 c-6.827,6.827-8.533,16.213-3.413,21.333l41.813,41.813c5.12,5.12,14.507,3.413,21.333-3.413l19.627-19.627 C240.493,302.502,227.693,295.675,217.453,285.435"/> <path style="fill:#FFA800;" d="M223.427,339.195c6.827,6.827,17.92,6.827,24.747,0l19.627-19.627 c-5.973-2.56-11.093-5.12-17.067-8.533l-12.8,12.8c-6.827,6.827-16.213,8.533-21.333,3.413"/> <path style="fill:#FFFFFF;" d="M175.64,285.435c-5.12-5.12-3.413-14.507,3.413-21.333l12.8-12.8 c-3.413-5.12-5.973-11.093-8.533-17.067l-19.627,19.627c-6.827,6.827-6.827,17.92,0,24.747"/> <path style="fill:#FFE100;" d="M207.213,329.808l-34.133-34.133l0,0l-102.4,102.4c-9.387,9.387-17.067,21.333-22.187,32.427 c-4.267,11.093-11.947,22.187-22.187,32.427l-9.387,9.387c-6.827,6.827-8.533,15.36-5.12,18.773 c3.413,4.267,11.947,1.707,18.773-5.12l9.387-9.387c9.387-9.387,21.333-17.067,32.427-22.187l0,0 c11.093-4.267,22.187-11.947,32.427-22.187L207.213,329.808C208.067,329.808,208.067,329.808,207.213,329.808"/> <path style="fill:#FFE100;" d="M205.507,332.368l-17.067-17.067L205.507,332.368z"/> <path style="fill:#FFFFFF;" d="M15.213,474.022l9.387-9.387c9.387-9.387,17.92-21.333,22.187-32.427s11.947-22.187,22.187-32.427 l102.4-102.4l-12.8-12.8l0,0l-102.4,102.4c-9.387,9.387-16.213,22.187-17.92,35.84c-1.707,13.653-8.533,26.453-17.92,35.84 l-9.387,9.387c-6.827,6.827-6.827,17.067,0,23.893C6.68,489.382,8.387,480.848,15.213,474.022"/> <path style="fill:#FFA800;" d="M218.307,344.315l-12.8-12.8l-102.4,102.4c-9.387,9.387-21.333,17.067-32.427,22.187l0,0 c-11.093,4.267-22.187,11.947-32.427,22.187l-9.387,9.387c-6.827,6.827-15.36,8.533-18.773,5.12c6.827,6.827,17.067,6.827,23.893,0 l9.387-9.387c9.387-9.387,22.187-16.213,35.84-17.92l0,0c13.653-1.707,26.453-8.533,35.84-17.92L218.307,344.315 C218.307,345.168,218.307,344.315,218.307,344.315"/> <path style="fill:#FFE100;" d="M471.747,88.315h-6.827c43.52,52.907,33.28,138.24-24.747,196.267s-143.36,68.267-196.267,24.747 v0.853h-6.827c64,58.027,162.133,57.173,223.573-5.12C520.387,246.182,523.8,152.315,471.747,88.315"/> <path style="fill:#FFE100;" d="M240.493,356.262c6.827,6.827,17.92,6.827,24.747,0l19.627-19.627 c-5.973-2.56-11.093-5.12-17.067-8.533l-12.8,12.8c-6.827,6.827-16.213,8.533-21.333,3.413"/> <path style="fill:#FFE100;" d="M243.907,352.848l-17.92-8.533l-102.4,102.4c-9.387,9.387-21.333,17.067-32.427,22.187l0,0 c-11.093,4.267-22.187,2.56-32.427,11.947l-9.387,9.387c-6.827,6.827-15.36,9.387-18.773,5.12c6.827,6.827,17.067,6.827,23.893,0 l9.387-9.387c9.387-9.387,22.187-5.973,35.84-8.533l0,0c13.653-1.707,26.453-8.533,35.84-17.92L243.907,352.848L243.907,352.848"/> <path style="fill:#3DB9F9;" d="M56.173,386.982c-8.533,9.387-14.507,21.333-16.213,34.133c-1.707,13.653-8.533,26.453-17.92,35.84 l-9.387,9.387c-6.827,6.827-6.827,17.067,0,23.893s17.067,6.827,23.893,0l9.387-9.387c9.387-9.387,22.187-16.213,35.84-17.92l0,0 c13.653-1.707,26.453-8.533,35.84-17.92l58.027-58.027H56.173z"/> <path style="fill:#63D3FD;" d="M53.613,386.982c-8.533,9.387-14.507,21.333-16.213,34.133c-1.707,13.653-8.533,26.453-17.92,35.84 l-9.387,9.387c-6.827,6.827-6.827,17.067,0,23.893s17.067,6.827,23.893,0l9.387-9.387c9.387-9.387,7.68-16.213,21.333-17.92l0,0 c13.653-1.707,17.067-8.533,27.307-17.92l58.027-58.027H53.613z"/> <path d="M329.24,344.315c-45.227,0-88.747-17.92-120.32-50.347c-32.427-31.573-50.347-75.093-50.347-120.32 s17.92-88.747,50.347-120.32c66.56-66.56,174.933-66.56,241.493,0c31.573,31.573,49.493,75.093,49.493,120.32 s-17.92,88.747-50.347,120.32l0,0l0,0C417.987,326.395,374.467,344.315,329.24,344.315z M329.24,20.048 c-39.253,0-78.507,15.36-108.373,45.227c-29.013,29.013-45.227,67.413-45.227,108.373s16.213,79.36,45.227,108.373 s67.413,45.227,108.373,45.227s79.36-16.213,108.373-45.227l0,0c29.013-29.013,45.227-67.413,45.227-108.373 s-16.213-79.36-45.227-108.373C407.747,35.408,368.493,20.048,329.24,20.048z"/> <path d="M218.307,122.448c-1.707,0-2.56,0-4.267-0.853c-4.267-2.56-5.973-7.68-3.413-11.947 c23.893-45.227,68.267-72.533,118.613-72.533c5.12,0,8.533,3.413,8.533,8.533s-3.413,8.533-8.533,8.533 c-43.52,0-81.92,23.893-103.253,64C224.28,120.742,221.72,122.448,218.307,122.448z"/> <path d="M232.813,356.262c-6.827,0-13.653-2.56-18.773-7.68l-59.733-59.733c-10.24-10.24-10.24-26.453,0-36.693l19.627-19.627 c1.707-1.707,5.12-2.56,7.68-2.56c2.56,0.853,5.12,2.56,5.973,5.12c7.68,17.92,18.773,34.133,32.427,47.787 c13.653,13.653,29.867,24.747,47.787,32.427c2.56,0.853,4.267,3.413,5.12,5.973s0,5.973-2.56,7.68l-19.627,19.627 C246.467,353.702,239.64,356.262,232.813,356.262z M178.2,252.155l-11.093,11.947c-3.413,3.413-3.413,9.387,0,12.8l59.733,59.733 c3.413,3.413,9.387,3.413,12.8,0l11.093-11.093c-15.36-7.68-29.867-17.92-41.813-30.72 C196.12,282.022,185.88,268.368,178.2,252.155z"/> <path d="M24.6,503.888c-6.827,0-13.653-2.56-17.92-7.68c-10.24-10.24-10.24-26.453,0-35.84l9.387-9.387 c8.533-8.533,13.653-19.627,15.36-31.573c1.707-15.36,9.387-29.867,20.48-40.96l102.4-102.4c1.707-1.707,4.267-2.56,5.973-2.56 c2.56,0,4.267,0.853,5.973,2.56c0,0,0,0,0,0.853l58.88,58.88l0.853,0.853c3.413,3.413,3.413,8.533,0,11.947l-102.4,102.4 c-11.093,11.093-25.6,17.92-40.96,20.48c-11.947,1.707-23.04,6.827-31.573,15.36l-9.387,9.387 C37.4,501.328,31.427,503.888,24.6,503.888z M160.28,293.968l-96.427,97.28c-8.533,8.533-13.653,19.627-15.36,31.573 c-2.56,15.36-9.387,29.867-20.48,40.96l-9.387,8.533c-3.413,3.413-3.413,8.533,0,11.947c3.413,3.413,8.533,3.413,11.947,0 l9.387-9.387c11.093-11.093,25.6-17.92,40.96-20.48c11.947-1.707,23.04-6.827,31.573-15.36l96.427-96.427L160.28,293.968z"/> <path d="M24.6,503.888c-6.827,0-12.8-2.56-17.92-7.68c-10.24-10.24-10.24-26.453,0-35.84l9.387-9.387 c8.533-8.533,13.653-19.627,15.36-31.573c1.707-14.507,8.533-27.307,18.773-38.4c0.853-1.707,3.413-2.56,5.973-2.56h120.32 c3.413,0,6.827,1.707,7.68,5.12c0.853,3.413,0.853,6.827-1.707,9.387l-58.027,58.027c-11.093,11.093-25.6,17.92-40.96,20.48 c-11.947,1.707-23.04,6.827-31.573,15.36l-9.387,9.387C37.4,501.328,31.427,503.888,24.6,503.888z M59.587,395.515 c-5.973,7.68-10.24,17.067-11.947,26.453c-2.56,15.36-9.387,29.867-20.48,40.96l-8.533,9.387c-3.413,3.413-3.413,8.533,0,11.947 c3.413,3.413,8.533,3.413,11.947,0l9.387-9.387c11.093-11.093,25.6-17.92,40.96-20.48c11.947-1.707,23.04-7.68,31.573-15.36 l43.52-43.52C156.013,395.515,59.587,395.515,59.587,395.515z"/> </g>
</svg>