<?xml version="1.0" encoding="iso-8859-1"?>
<!-- Uploaded to: SVGRepo, www.svgrepo.com, Transformed by: SVGRepo Tools -->
<svg version="1.1" id="Layer_1" xmlns="http://www.w3.org/2000/svg" xmlns:xlink="http://www.w3.org/1999/xlink" 
	 viewBox="0 0 512 512" xml:space="preserve">
<path style="fill:#4AD0FF;" d="M468.663,0H43.336c-9.673,0-17.381,7.309-17.381,16.982v477.502c0,9.673,7.775,17.516,17.448,17.516
	s17.482-8.109,17.482-17.782l-0.034-0.267H451.01v0.267c0,9.673,7.842,17.649,17.516,17.649s17.516-7.709,17.516-17.383V16.982
	C486.043,7.309,478.336,0,468.663,0z"/>
<path style="fill:#99E5FF;" d="M43.336,0c-9.673,0-17.381,7.309-17.381,16.982v477.502c0,9.673,7.775,17.516,17.448,17.516
	s17.482-8.109,17.482-17.783l-0.034-0.266h195.147V0H43.336z"/>
<rect x="25.958" y="279.088" style="fill:#FF835D;" width="77.07" height="210.192"/>
<rect x="408.974" y="279.088" style="fill:#FB5858;" width="77.07" height="210.192"/>
<path style="fill:#FF835D;" d="M468.663,0c9.673,0,17.381,7.309,17.381,16.982V303.61c-7.006,0-17.893,0-18.038,0
	C350.857,303.61,256,208.2,256,90.969v-9.246V0H468.663z"/>
<path style="fill:#FBB071;" d="M43.336,0c-9.673,0-17.381,7.309-17.381,16.982V303.61c7.245,0,17.893,0,18.038,0
	c117.148,0,212.005-95.411,212.005-212.642v-9.246V0H43.336z"/>
<path style="fill:#2C6991;" d="M486.043,512H25.957c-9.673,0-17.516-7.842-17.516-17.516s7.842-17.516,17.516-17.516h460.086
	c9.673,0,17.516,7.842,17.516,17.516S495.717,512,486.043,512z"/>
<path style="fill:#528FB3;" d="M256,512H25.957c-9.673,0-17.516-7.842-17.516-17.516s7.842-17.516,17.516-17.516H256V512z"/>
<path style="fill:#2C6991;" d="M282.858,373.674h-56.051c-9.673,0-17.516-7.842-17.516-17.516s7.842-17.516,17.516-17.516h56.051
	c9.673,0,17.516,7.842,17.516,17.516S292.531,373.674,282.858,373.674z"/>
<path style="fill:#528FB3;" d="M254.832,373.674h-28.026c-9.673,0-17.516-7.842-17.516-17.516s7.842-17.516,17.516-17.516h28.026
	V373.674z"/>
<path style="fill:#FF835D;" d="M166.085,3.567v39.242c0,46.831-29.948,88.158-74.418,102.836c-3.553,1.172-6.479,3.381-8.568,6.171
	c-3.302,4.423-4.484,10.319-2.624,15.952c1.216,3.682,3.529,6.69,6.459,8.777c2.937,2.086,6.488,3.251,10.162,3.253
	c1.128-0.001,2.292-0.125,3.449-0.351c0.702-0.139,1.402-0.307,2.093-0.535c57.018-18.819,95.985-70.738,98.365-130.314
	c0.077-1.922,0.116-3.851,0.116-5.788V3.567c0-1.223-0.281-2.415-0.52-3.567h-34.302C166.058,1.151,166.085,2.345,166.085,3.567z"/>
<path style="fill:#FB5858;" d="M345.915,3.567v39.242c0,46.831,29.9,88.158,74.37,102.836c3.553,1.172,6.455,3.381,8.544,6.171
	c3.302,4.423,4.471,10.319,2.612,15.952c-1.216,3.682-3.536,6.69-6.466,8.777c-2.937,2.086-6.491,3.251-10.164,3.253
	c-1.128-0.001-2.293-0.125-3.451-0.351c-0.702-0.139-1.402-0.307-2.093-0.535c-57.018-18.819-95.938-70.738-98.317-130.314
	c-0.077-1.922-0.069-3.851-0.069-5.788V3.567c0-1.223,0.187-2.4,0.425-3.567h34.301C345.846,1.168,345.915,2.345,345.915,3.567z"/>
<g>
</g>
<g>
</g>
<g>
</g>
<g>
</g>
<g>
</g>
<g>
</g>
<g>
</g>
<g>
</g>
<g>
</g>
<g>
</g>
<g>
</g>
<g>
</g>
<g>
</g>
<g>
</g>
<g>
</g>
</svg>
