<?xml version="1.0" encoding="iso-8859-1"?>
<!-- Uploaded to: SVGRepo, www.svgrepo.com, Transformed by: SVGRepo Tools -->
<svg height="800px" width="800px" version="1.1" id="Layer_1" xmlns="http://www.w3.org/2000/svg" xmlns:xlink="http://www.w3.org/1999/xlink" 
	 viewBox="0 0 512 512" xml:space="preserve">
<path style="fill:#2C6991;" d="M296.416,186.548c0-9.139-7.409-16.548-16.548-16.548h-92.671c-9.139,0-16.548,7.409-16.548,16.548
	v41.923c0,9.139,7.409,16.548,16.548,16.548h92.671c9.139,0,16.548-7.409,16.548-16.548V186.548z"/>
<path style="fill:#528FB3;" d="M233.532,169.999h-46.336c-9.139,0-16.548,7.409-16.548,16.548v41.923
	c0,9.139,7.409,16.548,16.548,16.548h46.336V169.999z"/>
<path style="fill:#2C6991;" d="M482.915,392.851H147.938c-37.493,0-67.754,30.583-67.754,68.076v34.849
	c0,9.139,7.165,16.224,16.305,16.224h386.427c9.139,0,16.494-7.085,16.494-16.224v-86.298
	C499.41,400.339,492.055,392.851,482.915,392.851z"/>
<path style="fill:#528FB3;" d="M280.971,392.851H147.938c-37.493,0-67.754,30.583-67.754,68.076v34.849
	c0,9.139,7.165,16.224,16.305,16.224h184.483V392.851H280.971z"/>
<path style="fill:#FB5858;" d="M472.083,23.215C454.706,6.838,431.869-1.001,407.989,0.102h-0.061L109.267,17.736
	c-29.422,1.745-52.251,25.977-52.251,55.273v61.217c0,14.847,5.726,28.855,16.574,39.443c10.696,10.44,24.477,16.189,39.257,16.189
	h236.525v305.594c0,9.139,6.912,16.548,16.051,16.548h116.942c9.139,0,17.046-7.409,17.046-16.548V85.997
	C499.41,62.261,489.291,39.432,472.083,23.215z"/>
<path style="fill:#FF835D;" d="M289.797,7.107l-180.281,10.63c-29.422,1.745-52.5,25.977-52.5,55.273v61.217
	c0,14.847,5.726,28.855,16.574,39.443c10.696,10.44,24.477,16.189,39.257,16.189h176.951V7.107H289.797z"/>
<path style="fill:#2C6991;" d="M158.355,240.877l-109.161-5.789h-0.056c-9.447-1.103-18.839,2.589-25.715,9.092
	c-6.876,6.501-10.834,15.506-10.834,24.968c0,9.462,3.936,18.543,10.813,25.044c6.413,6.063,14.984,9.413,23.776,9.413
	c0.634,0,1.271-0.036,1.907-0.073l109.27-6.103c7.22-0.405,13.396-6.387,13.396-13.618v-29.634
	C171.751,246.949,165.574,241.282,158.355,240.877z"/>
<path style="fill:#528FB3;" d="M158.355,240.877l-109.161-5.789h-0.056c-9.447-1.103-18.839,2.589-25.715,9.092
	c-6.876,6.501-10.802,15.506-10.802,24.968l159.131,0.257v-15.227C171.751,246.949,165.574,241.282,158.355,240.877z"/>
<path style="fill:#ABA8AB;" d="M314.068,236.193c0-9.139-7.409-16.548-16.548-16.548H168.442c-9.139,0-16.548,7.409-16.548,16.548
	v63.987c0,9.139,7.409,16.548,16.548,16.548h129.078c9.139,0,16.548-7.409,16.548-16.548V236.193z"/>
<path style="fill:#CCCCCC;" d="M233.532,219.644h-65.09c-9.139,0-16.548,7.409-16.548,16.548v63.987
	c0,9.139,7.409,16.548,16.548,16.548h65.09V219.644z"/>
<circle style="fill:#ABA8AB;" cx="135.3" cy="109.362" r="19.151"/>
<path style="fill:#CCCCCC;" d="M135.296,128.516c-10.577,0-19.151-8.574-19.151-19.151s8.574-19.151,19.151-19.151V128.516z"/>
<circle style="fill:#ABA8AB;" cx="406.396" cy="109.362" r="19.151"/>
<path style="fill:#CCCCCC;" d="M406.399,128.516c-10.577,0-19.151-8.574-19.151-19.151s8.574-19.151,19.151-19.151V128.516z"/>
<g>
</g>
<g>
</g>
<g>
</g>
<g>
</g>
<g>
</g>
<g>
</g>
<g>
</g>
<g>
</g>
<g>
</g>
<g>
</g>
<g>
</g>
<g>
</g>
<g>
</g>
<g>
</g>
<g>
</g>
</svg>
