<!DOCTYPE svg PUBLIC "-//W3C//DTD SVG 1.1//EN" "http://www.w3.org/Graphics/SVG/1.1/DTD/svg11.dtd">
<svg fill="#ffffff" version="1.1" id="Capa_1" xmlns="http://www.w3.org/2000/svg" xmlns:xlink="http://www.w3.org/1999/xlink" width="200px" height="200px" viewBox="-94.84 -94.84 620.79 620.79" xml:space="preserve" stroke="#ffffff" stroke-width="0">
<g id="SVGRepo_bgCarrier" stroke-width="0">
<rect x="-94.84" y="-94.84" width="620.79" height="620.79" rx="310.395" fill="#383838" strokewidth="0"/>
</g>
<g id="SVGRepo_iconCarrier"> <g> <path d="M0,0.002v431.101h431.105V0.002H0z M215.548,342.659c-68.541,0-124.303-55.759-124.303-124.308 c0-68.545,55.757-124.31,124.303-124.31c68.546,0,124.308,55.771,124.308,124.31C339.856,286.888,284.095,342.659,215.548,342.659z M16.81,16.812h190.34v66.315c-67.1,4.128-121.117,57.286-126.603,124.018H16.81V16.812z M16.81,223.956h63.379 C82.683,284.973,125.7,335.699,183,349.882c-42.373,13.641-75.087,48.569-88.241,64.405H16.815V223.956H16.81z M196.554,414.288 v-61.779c3.492,0.493,7.027,0.849,10.596,1.067v60.712H196.554z M223.954,353.576c3.451-0.214,6.865-0.559,10.241-1.023v61.735 h-10.241V353.576z M414.297,414.288h-84.544c-30.785-40.854-63.36-57.779-81.401-64.461 c57.172-14.271,100.072-64.941,102.567-125.871h63.378V414.288z M414.297,207.145h-63.739 c-5.486-66.731-59.502-119.889-126.604-124.018V16.812h190.343V207.145z M318.374,218.916c0,56.471-45.79,102.261-102.266,102.261 s-102.261-45.79-102.261-102.261c0-56.479,45.785-102.264,102.261-102.264S318.374,162.436,318.374,218.916z"/> </g> <g> </g> <g> </g> <g> </g> <g> </g> <g> </g> <g> </g> <g> </g> <g> </g> <g> </g> <g> </g> <g> </g> <g> </g> <g> </g> <g> </g> <g> </g> </g>
</svg>