<?xml version="1.0" encoding="iso-8859-1"?>
<!-- Uploaded to: SVGRepo, www.svgrepo.com, Transformed by: SVGRepo Tools -->
<svg height="800px" width="800px" version="1.1" id="Layer_1" xmlns="http://www.w3.org/2000/svg" xmlns:xlink="http://www.w3.org/1999/xlink" 
	 viewBox="0 0 512 512" xml:space="preserve">
<path style="fill:#2C6991;" d="M207.142,407.521c-7.911-3.916-11.15-13.504-7.234-21.414L386.618,8.896
	c3.916-7.911,13.504-11.15,21.414-7.234s11.15,13.504,7.234,21.414l-186.708,377.21
	C224.641,408.197,215.054,411.436,207.142,407.521z"/>
<path style="fill:#528FB3;" d="M207.142,407.521c-7.911-3.916-11.15-13.504-7.234-21.414L386.618,8.896
	c3.916-7.911,13.504-11.15,21.414-7.234L207.142,407.521z"/>
<path style="fill:#FB5858;" d="M339.719,269.01c-3.029-3.331-7.322-5.281-11.825-5.281H140.961c-4.503,0-8.796,1.95-11.825,5.281
	c-3.029,3.331-4.513,7.81-4.086,12.292l19.666,206.62C146.024,501.67,157.424,512,171.234,512H297.62
	c13.808,0,25.21-10.317,26.519-24.064l19.666-206.659C344.231,276.795,342.748,272.341,339.719,269.01z"/>
<path style="fill:#FF835D;" d="M234.065,263.729h-93.104c-4.503,0-8.796,1.95-11.825,5.281c-3.029,3.331-4.513,7.81-4.086,12.292
	l19.666,206.62C146.024,501.67,157.424,512,171.234,512h62.831L234.065,263.729L234.065,263.729z"/>
<path style="fill:#CCCCCC;" d="M96.934,401.658c-4.132-7.801-1.157-17.474,6.644-21.605l122.409-64.836
	c7.801-4.132,17.474-1.157,21.605,6.644c4.132,7.801,1.157,17.474-6.643,21.605L118.54,408.302
	C110.739,412.433,101.066,409.459,96.934,401.658z"/>
<path style="fill:#E1E1E1;" d="M96.934,401.658c-4.132-7.801-1.157-17.474,6.644-21.605l122.409-64.836
	c7.801-4.132,17.474-1.157,21.605,6.644L96.934,401.658z"/>
<g>
</g>
<g>
</g>
<g>
</g>
<g>
</g>
<g>
</g>
<g>
</g>
<g>
</g>
<g>
</g>
<g>
</g>
<g>
</g>
<g>
</g>
<g>
</g>
<g>
</g>
<g>
</g>
<g>
</g>
</svg>
