<!DOCTYPE svg PUBLIC "-//W3C//DTD SVG 1.1//EN" "http://www.w3.org/Graphics/SVG/1.1/DTD/svg11.dtd">
<svg version="1.1" id="SVGRepoEditor" xmlns="http://www.w3.org/2000/svg" xmlns:xlink="http://www.w3.org/1999/xlink" viewBox="0 0 504 504" xml:space="preserve" width="256px" height="256px" fill="#000000" stroke="#000000" stroke-width="0">
<g id="SVGRepo_bgCarrier" stroke-width="0"/> <circle style="fill:#324A5E;" cx="252" cy="252" r="252"/> <path style="fill:#ff5757;" d="M249.2,392.1H88.8c-1.6,0-2.8-1.3-2.8-2.8V129.5c0-1.6,1.3-2.8,2.8-2.8h160.4c1.6,0,2.8,1.3,2.8,2.8 v259.8C252,390.9,250.7,392.1,249.2,392.1z"/> <path style="fill:#ff5757;" d="M415.2,392.1H254.8c-1.6,0-2.8-1.3-2.8-2.8V129.5c0-1.6,1.3-2.8,2.8-2.8h160.4 c1.6,0,2.8,1.3,2.8,2.8v259.8C418,390.9,416.8,392.1,415.2,392.1z"/> <rect x="103.8" y="144.7" style="fill:#FFFFFF;" width="148.2" height="229.4"/> <rect x="252" y="144.7" style="fill:#ACB3BA;" width="148.2" height="229.4"/> <polygon style="fill:#E6E9EE;" points="252,374.1 369.6,341.3 369.6,111.9 252,144.7 "/> <rect x="308.643" y="139.451" transform="matrix(-0.2691 -0.9631 0.9631 -0.2691 221.3235 527.5625)" style="fill:#ACB3BA;" width="4.4" height="80.699"/> <rect x="308.563" y="164.731" transform="matrix(0.2691 0.9631 -0.9631 0.2691 424.6516 -149.4068)" style="fill:#ACB3BA;" width="4.4" height="80.699"/> <rect x="308.6" y="189.993" transform="matrix(0.2691 0.9631 -0.9631 0.2691 449.0081 -130.9782)" style="fill:#ACB3BA;" width="4.4" height="80.699"/> <rect x="308.53" y="215.272" transform="matrix(0.2691 0.9631 -0.9631 0.2691 473.3032 -112.4348)" style="fill:#ACB3BA;" width="4.4" height="80.699"/> <rect x="308.556" y="240.543" transform="matrix(0.2691 0.9631 -0.9631 0.2691 497.662 -93.9892)" style="fill:#ACB3BA;" width="4.4" height="80.699"/> <rect x="308.603" y="265.795" transform="matrix(0.2691 0.9631 -0.9631 0.2691 522.0162 -75.5775)" style="fill:#ACB3BA;" width="4.4" height="80.699"/> <path style="fill:#009dff;" d="M207.5,226.4v-33.6h-59.2v33.6c0,15.4,11.7,28,26.7,29.5v46.6c0,8.9-7.2,16.2-16.2,16.2 c-4.1,0-7.4,3.3-7.4,7.4h53.1c0-4.1-3.3-7.4-7.4-7.4l0,0c-8.9,0-16.2-7.2-16.2-16.2v-46.6C195.8,254.4,207.5,241.7,207.5,226.4z"/> </svg>